<svg xmlns="http://www.w3.org/2000/svg" xmlns:xlink="http://www.w3.org/1999/xlink" width="13" height="13" version="1.1" viewBox="0 0 13 13"><title>note_on</title><desc>Created with Sketch.</desc><g id="Page-1" fill="none" fill-rule="evenodd" stroke="none" stroke-width="1"><g id="note_on"><rect id="Rectangle-40" width="13" height="13" x="0" y="0" fill="#138CDE"/><path id="Shape" fill="#FFF" d="M2.81818182,4 L10.1818182,4 L11,4 L11,3 L10.1818182,3 L2.81818182,3 L2,3 L2,4 L2.81818182,4 L2.81818182,4 Z"/><path id="Shape-Copy" fill="#FFF" d="M2.81818182,7 L10.1818182,7 L11,7 L11,6 L10.1818182,6 L2.81818182,6 L2,6 L2,7 L2.81818182,7 L2.81818182,7 Z"/><path id="Shape-Copy-2" fill="#FFF" d="M2.81818182,10 L10.1818182,10 L11,10 L11,9 L10.1818182,9 L2.81818182,9 L2,9 L2,10 L2.81818182,10 L2.81818182,10 Z"/></g></g></svg>